<?xml version="1.0" encoding="utf-8"?>
<!-- Generator: Adobe Illustrator 24.1.2, SVG Export Plug-In . SVG Version: 6.00 Build 0)  -->
<svg version="1.1" id="Layer_1" xmlns="http://www.w3.org/2000/svg" xmlns:xlink="http://www.w3.org/1999/xlink" x="0px" y="0px"
	 viewBox="0 0 617.3 401" style="enable-background:new 0 0 617.3 401;" xml:space="preserve">
<style type="text/css">
	.st0{display:none;}
	.st1{display:inline;}
	.st2{fill:#9FE5F7;}
	.st3{display:inline;fill:#FFFFFF;}
	.st4{fill:#2471C4;}
	.st5{fill:#3A95DC;}
	.st6{fill:#002050;}
	.st7{fill:#B6E0F4;}
	.st8{fill:#70BEF2;}
	.st9{fill:#005EB8;}
	.st10{fill:#FFFFFF;}
	.st11{fill:none;}
	.st12{clip-path:url(#SVGID_2_);}
	.st13{fill:#E8A083;}
	.st14{fill:#3C251D;}
	.st15{fill:#FBB040;}
	.st16{fill:#E17252;}
	.st17{fill:none;stroke:#CF5066;stroke-width:0.25;stroke-linecap:round;stroke-linejoin:round;stroke-miterlimit:10;}
	.st18{fill:#FEAD1F;}
	.st19{stroke:#002050;stroke-width:0.75;stroke-miterlimit:10;}
	.st20{fill:none;stroke:#005EB8;stroke-miterlimit:10;}
	.st21{fill:none;stroke:#FFFFFF;stroke-linecap:round;stroke-linejoin:round;stroke-miterlimit:10;}
	.st22{fill:#F6A100;}
	.st23{fill:#F7C71B;}
	.st24{fill:#FCCE38;}
	.st25{fill:#E59933;}
</style>
<g id="rect84058-8-0-9_1_" class="st0">
	<g class="st1">
		<path class="st2" d="M243.6,137.1h78.1c3.5,0,6.4,2.8,6.4,6.4v71.4c0,3.5-2.8,6.4-6.4,6.4h-78.1c-3.5,0-6.4-2.8-6.4-6.4v-71.4
			C237.2,140,240,137.1,243.6,137.1z"/>
	</g>
</g>
<g class="st0">
	
		<ellipse transform="matrix(8.264892e-02 -0.9966 0.9966 8.264892e-02 452.6757 247.5748)" class="st3" cx="360.8" cy="-122.1" rx="4.8" ry="5.3"/>
</g>
<g>
	<g>
		<path class="st4" d="M461.7,338.7c-26.2,31-79.8,39.3-136.5,27.7C240,348.9,125.6,286,83.2,206.7C42,129.8,77.6,66,135.2,37.6
			c40.4-19.9,98.7-21.7,158,0.2C431.9,89,520.9,261.6,463.9,335.9C463.2,336.8,462.5,337.7,461.7,338.7z"/>
	</g>
	<g>
		<path class="st4" d="M470.8,176.7c-21.3-1.2-41-13.4-52.9-29.9c-18.1-24.9-25.3-65.3-3.6-90.3C435.1,32.4,473.4,30,503,39.8
			c20.8,6.8,39,21.4,47.4,40.5c19.6,44.5-28.5,97.9-77.7,96.6C472,176.7,471.4,176.7,470.8,176.7z"/>
	</g>
	<g>
		<path class="st5" d="M310.1,127.8l3.2-3.3c1.9,1.2,3.7,2.3,5.8,3.3l-1.1,4.5l14.8,3.8l1.1-4.5c2.2,0.2,4.5,0.1,6.6-0.1l1.2,4.4
			l14.8-4.1l-1.1-4.1c2.1-0.9,3.9-2.1,5.8-3.4l3.3,3.2l10.8-11l-3.2-3.4c1.2-1.9,2.3-3.7,3.3-5.8l4.5,1.1l3.8-14.8l-4.5-1.1
			c0.2-2.2,0.1-4.5-0.1-6.6l4.4-1.2l-4.1-14.8l-4.4,1.2c-0.9-2.1-2.1-3.9-3.4-5.8l3.2-3.3l-11-10.8l-3.2,3.3
			c-1.9-1.2-3.7-2.3-5.8-3.3l1.1-4.5l-14.8-3.8l-1.1,4.5c-2.2-0.2-4.5-0.1-6.6,0.1l-1.2-4.4l-14.8,4.1l1.2,4.4
			c-2.1,0.9-3.9,2.1-5.8,3.4l-3.3-3.2l-10.9,11l3.3,3.2c-1.2,1.9-2.3,3.7-3.3,5.8l-4.5-1.1l-3.8,14.8l4.5,1.1
			c-0.2,2.2-0.1,4.5,0.1,6.6l-4.4,1.2l4.1,14.8l4.4-1.2c0.9,2.1,2.1,3.9,3.4,5.8l-3.2,3.3L310.1,127.8z M319.6,71
			c9.6-9.1,25-9.3,34.8-0.3c10.8,10.1,11,27.1,0.3,37.2c-9.6,9.1-25,9.3-34.8,0.3C308.9,98.2,308.8,81.2,319.6,71z"/>
	</g>
	<path class="st6" d="M337,123.6c-5.8,0-11.7-1.5-17-4.6c-0.2-0.1-0.3-0.4-0.2-0.6c0.1-0.2,0.4-0.3,0.6-0.2
		c13.2,7.6,29.6,5.3,40.2-5.5c12.9-13.1,12.6-34.1-0.4-47C348.7,54.4,330,53.2,317,62.9c-0.2,0.2-0.5,0.1-0.6-0.1
		c-0.2-0.2-0.1-0.5,0.1-0.6c6.4-4.9,14.5-7.3,22.6-6.7c8.2,0.5,16,3.9,21.8,9.7c13.4,13.3,13.6,34.8,0.4,48.3
		C354.7,120,346,123.6,337,123.6z"/>
	<rect x="219.1" y="76.1" class="st7" width="291.2" height="206.5"/>
	<rect x="228.3" y="85.2" class="st8" width="273" height="170.6"/>
	<g>
		<rect x="332.8" y="131.4" class="st9" width="155.6" height="9.8"/>
		<path class="st9" d="M489,242.4H332.3V130.9H489V242.4L489,242.4z M333.4,241.3H488V131.9H333.4V241.3z"/>
		<circle class="st9" cx="482" cy="136.4" r="2.2"/>
		<circle class="st9" cx="474.7" cy="136.4" r="2.2"/>
		<circle class="st9" cx="467.6" cy="136.4" r="2.2"/>
	</g>
	<g>
		<rect x="342.7" y="153.8" class="st7" width="136" height="80.2"/>
		<rect x="351.5" y="221.5" class="st7" width="120.7" height="5.2"/>
	</g>
	<g>
		<path class="st5" d="M127.8,117.2c-0.1,0-0.1,0-0.2,0l-3.7-2.1l-3.7,2.1c-0.1,0.1-0.3,0.1-0.4,0s-0.2-0.2-0.2-0.4l0.7-4.2l-3.1-3
			c-0.1-0.1-0.1-0.3-0.1-0.4s0.2-0.2,0.3-0.3l4.2-0.6l2-3.8c0.1-0.3,0.6-0.3,0.7,0l2,3.8l4.2,0.6c0.1,0,0.3,0.1,0.3,0.3
			c0,0.1,0,0.3-0.1,0.4l-3.1,3l0.7,4.2C128.1,116.9,128.1,117.1,127.8,117.2C127.9,117.2,127.8,117.2,127.8,117.2z M123.9,114.4
			c0.1,0,0.1,0,0.2,0l3.3,1.8l-0.6-3.6c0-0.1,0-0.3,0.1-0.3l2.6-2.6l-3.6-0.6c-0.1,0-0.2-0.1-0.3-0.2l-1.7-3.3l-1.7,3.3
			c-0.1,0.1-0.2,0.2-0.3,0.2l-3.6,0.6l2.6,2.6c0.1,0.1,0.1,0.2,0.1,0.3l-0.6,3.6l3.3-1.8C123.7,114.4,123.8,114.4,123.9,114.4z"/>
	</g>
	<g>
		<g>
			<path class="st5" d="M461.7,350.1L461.7,350.1l-3.7-0.8c-0.2-0.1-0.4-0.3-0.4-0.5v-4.2c-1-0.7-2-1.5-2.8-2.3l-3.5,1.1
				c-0.2,0.1-0.5,0-0.6-0.2l-2-3.4c-0.1-0.2-0.1-0.4,0.1-0.6l2.8-2.7c-0.4-1.3-0.5-2.6-0.4-3.9l-3-1.5c-0.2-0.1-0.3-0.3-0.3-0.5
				l0.8-3.7c0.1-0.2,0.2-0.4,0.5-0.4h3.6c0.7-1.1,1.5-2.2,2.4-3.1l0,0l-0.9-3.4c-0.1-0.2,0-0.4,0.2-0.6l3.3-1.9
				c0.2-0.1,0.5-0.1,0.6,0.1l2.2,2.7c1.2-0.3,2.5-0.5,3.6-0.4l1.9-3.4c0.1-0.2,0.4-0.3,0.6-0.2l3.5,1.1c0.2,0.1,0.4,0.3,0.3,0.5
				l-0.4,3.7c1,0.7,2.1,1.6,2.9,2.5l3.5-1.1c0.2-0.1,0.5,0,0.6,0.2l1.9,3.4c0.1,0.2,0.1,0.4-0.1,0.6l-2.9,2.7
				c0.3,1.1,0.4,2.4,0.4,3.5l3.3,1.9c0.2,0.1,0.3,0.3,0.2,0.6l-1,3.7c-0.1,0.2-0.3,0.4-0.5,0.4l-3.5-0.3c-0.7,1.1-1.5,2.1-2.3,3
				l1.1,3.5c0.1,0.2,0,0.4-0.2,0.6l-3.2,2.1c-0.2,0.1-0.5,0.1-0.6-0.1l-2.6-2.9c-1.2,0.3-2.5,0.5-3.7,0.4l-1.6,3.4
				C462.1,349.9,461.9,350.1,461.7,350.1z M458.6,348.3l2.9,0.7l1.6-3.4c0.1-0.2,0.3-0.3,0.5-0.3c1.3,0.1,2.7,0,4-0.4
				c0.2-0.1,0.4,0,0.5,0.1l2.5,2.8l2.6-1.6l-1.1-3.5c-0.1-0.2,0-0.4,0.1-0.5c1-0.9,1.9-2.1,2.5-3.3c0.1-0.2,0.3-0.3,0.5-0.3l3.5,0.3
				l0.8-3l-3.2-1.9c-0.2-0.1-0.3-0.3-0.2-0.4c0.1-1.2-0.1-2.6-0.4-3.8c0-0.2,0-0.4,0.1-0.5l2.9-2.6l-1.5-2.7l-3.5,1
				c-0.2,0.1-0.4,0-0.5-0.2l-0.2-0.2c-0.8-0.9-1.9-1.9-3-2.4c-0.2-0.1-0.3-0.3-0.2-0.5l0.4-3.6l-2.9-0.9l-1.9,3.3
				c-0.1,0.2-0.3,0.3-0.5,0.3c-1.3-0.1-2.7,0-3.9,0.4c-0.2,0.1-0.4,0-0.5-0.2l-2.2-2.7l-2.6,1.5l0.9,3.4c0.1,0.2,0,0.4-0.1,0.5
				l-0.2,0.2c-0.9,0.8-1.8,2-2.3,3.1c-0.1,0.2-0.3,0.3-0.4,0.3l0,0h-3.5l-0.7,3.1l3,1.5c0.2,0.1,0.3,0.3,0.3,0.5
				c-0.1,1.5,0.1,2.9,0.5,4.2c0,0.2,0,0.4-0.1,0.5l-2.7,2.6l1.6,2.7l3.4-1.1c0.2-0.1,0.4,0,0.5,0.1l-0.3,0.4l0.4-0.3
				c0.8,0.9,1.9,1.8,2.9,2.4c0.1,0.1,0.2,0.3,0.2,0.4L458.6,348.3z M464.3,342.4c-2.6,0-5-1.1-6.7-3.1c-3.4-3.8-3.1-9.7,0.5-13.2
				c1.7-1.6,3.7-2.3,6-2.3c2.6,0,5,1.1,6.7,3.1c3.4,3.8,3.1,9.7-0.5,13.2C468.6,341.7,466.6,342.4,464.3,342.4z M464.1,324.8
				c-2,0-3.8,0.7-5.3,2.1c-3.3,3.1-3.5,8.4-0.5,11.8c1.6,1.8,3.7,2.8,6.1,2.8c2,0,3.8-0.7,5.3-2.1c3.3-3.1,3.5-8.4,0.5-11.8
				C468.6,325.8,466.3,324.8,464.1,324.8z"/>
		</g>
	</g>
	<g>
		<g>
			<path class="st5" d="M408.9,360.6L408.9,360.6l-2.7-0.7c-0.2,0-0.3-0.2-0.3-0.3v-3c-0.7-0.5-1.5-1-2.1-1.7l-2.4,0.8
				c-0.2,0.1-0.3,0-0.4-0.2l-1.3-2.4c-0.1-0.1-0.1-0.3,0.1-0.4l2.1-2c-0.3-0.9-0.4-2-0.3-2.8l-2.1-1.1c-0.1-0.1-0.2-0.2-0.2-0.4
				l0.6-2.7c0-0.2,0.2-0.3,0.3-0.3h2.6c0.5-0.8,1-1.6,1.8-2.2l0,0l-0.7-2.4c0-0.2,0-0.3,0.2-0.4l2.3-1.3c0.1-0.1,0.3,0,0.4,0.1
				l1.7,2c0.8-0.2,1.8-0.3,2.6-0.3l1.3-2.4c0.1-0.1,0.3-0.2,0.4-0.2l2.6,0.8c0.2,0.1,0.3,0.2,0.2,0.4l-0.3,2.7
				c0.7,0.5,1.5,1,2.1,1.8l2.5-0.7c0.2,0,0.3,0,0.4,0.2l1.3,2.4c0.1,0.1,0,0.3-0.1,0.4l-2.1,2c0.2,0.8,0.3,1.8,0.3,2.6l2.3,1.3
				c0.1,0.1,0.2,0.2,0.2,0.4l-0.7,2.7c0,0.2-0.2,0.3-0.4,0.3l-2.6-0.2c-0.5,0.7-0.9,1.6-1.7,2.1l0.8,2.5c0.1,0.2,0,0.3-0.1,0.4
				l-2.3,1.5c-0.1,0.1-0.3,0.1-0.4-0.1l-1.9-2.1c-0.8,0.2-1.8,0.3-2.7,0.3l-1,2.4C409.2,360.5,409.1,360.6,408.9,360.6z
				 M406.7,359.4l2.1,0.5l1-2.4c0.1-0.1,0.2-0.2,0.3-0.2c0.9,0.1,2,0,2.9-0.3c0.1,0,0.3,0,0.4,0.1l1.9,2.1l1.9-1.1l-0.7-2.4
				c0-0.1,0-0.3,0.1-0.4c0.7-0.7,1.3-1.5,1.8-2.3c0.1-0.1,0.2-0.2,0.3-0.2l2.5,0.2l0.6-2.1l-2.3-1.2c-0.1-0.1-0.2-0.2-0.2-0.3
				c0-0.9-0.1-1.9-0.3-2.8c0-0.1,0-0.3,0.1-0.3l2.1-1.9l-1-2l-2.5,0.7c-0.1,0-0.3,0-0.4-0.1l-0.1-0.2c-0.6-0.7-1.3-1.2-2.1-1.8
				c-0.1-0.1-0.2-0.2-0.2-0.3l0.3-2.6l-2.1-0.7l-1.2,2.3c-0.1,0.1-0.2,0.2-0.3,0.2c-0.9-0.1-2,0-2.8,0.3c-0.1,0-0.3,0-0.4-0.1
				l-1.6-2l-1.9,1l0.7,2.4c0,0.1,0,0.3-0.1,0.4l-0.2,0.1c-0.7,0.6-1.2,1.3-1.7,2.2c-0.1,0.1-0.2,0.2-0.3,0.2l0,0h-2.5l-0.5,2.2
				l2.1,1c0.1,0.1,0.2,0.2,0.2,0.3c-0.1,1,0,2.1,0.3,3.1c0,0.1,0,0.3-0.1,0.3l-2,2l1,2l2.4-0.8c0.1,0,0.3,0,0.4,0.1l-0.2,0.3
				l0.3-0.2c0.6,0.7,1.2,1.2,2.1,1.8c0.1,0.1,0.2,0.2,0.2,0.3L406.7,359.4z M410.8,355.2c-1.9,0-3.5-0.7-4.9-2.2
				c-2.4-2.7-2.2-6.9,0.4-9.3c1.1-1,2.7-1.7,4.2-1.7c1.9,0,3.5,0.7,4.9,2.2c2.4,2.7,2.2,6.9-0.4,9.3
				C413.8,354.6,412.3,355.2,410.8,355.2z M410.6,342.6c-1.5,0-2.7,0.6-3.7,1.6c-2.3,2.2-2.5,6-0.3,8.4c1.1,1.2,2.7,2.1,4.4,2.1
				c1.5,0,2.7-0.6,3.7-1.6c2.3-2.2,2.5-6,0.3-8.4C413.8,343.3,412.3,342.6,410.6,342.6z"/>
		</g>
	</g>
	<g>
		<path class="st5" d="M174.7,67.4c0-0.1-0.1-0.1-0.1-0.2s0-0.1-0.1-0.2l0,0c-0.1-0.1-0.1-0.1-0.2-0.1s-0.1-0.1-0.2-0.1l0,0h-33.4
			c-0.4,0-0.7,0.3-0.7,0.7v21.4c0,0.1,0.1,0.1,0.1,0.2s0,0.2,0.1,0.2l0,0c0.1,0.1,0.3,0.2,0.5,0.2h33.4c0.2,0,0.4-0.1,0.5-0.2l0,0
			c0.1-0.1,0-0.1,0.1-0.2c0-0.1,0.1-0.1,0.1-0.2L174.7,67.4L174.7,67.4z M141.2,69.2l10.6,8.5l-10.6,9.5V69.2z M156.8,80.2l-15-12
			h30.4L156.8,80.2z M152.8,78.6C152.8,78.6,152.8,78.5,152.8,78.6l3.6,2.9c0.1,0.1,0.3,0.1,0.4,0.1c0.1,0,0.3,0,0.4-0.1l4-3.2
			l11.2,9.9h-30.2L152.8,78.6z M162.3,77.5l11.1-8.8v18.7L162.3,77.5z"/>
	</g>
	<g>
		<circle class="st5" cx="173.7" cy="68.1" r="6.3"/>
	</g>
	<g>
		<g>
			<path class="st10" d="M383.9,103.6h-66.6c-0.3,0-0.5-0.2-0.5-0.5V98c0-0.3,0.2-0.5,0.5-0.5h66.5c0.3,0,0.5,0.2,0.5,0.5v5.1
				C384.4,103.4,384.1,103.6,383.9,103.6z"/>
		</g>
		<g>
			<path class="st10" d="M354.4,115.3h-37.1c-0.3,0-0.5-0.2-0.5-0.5v-5.1c0-0.3,0.2-0.5,0.5-0.5h37.1c0.3,0,0.5,0.2,0.5,0.5v5.1
				C355,115.1,354.7,115.3,354.4,115.3z"/>
		</g>
	</g>
	<circle class="st11" cx="437.7" cy="179.3" r="18.9"/>
	<g>
		<g>
			<g>
				<g>
					<g>
						<defs>
							<circle id="SVGID_1_" cx="437.7" cy="179.3" r="18.9"/>
						</defs>
						<clipPath id="SVGID_2_">
							<use xlink:href="#SVGID_1_"  style="overflow:visible;"/>
						</clipPath>
						<g class="st12">
							<ellipse class="st11" cx="437.7" cy="179.3" rx="18.9" ry="18.9"/>
						</g>
					</g>
				</g>
			</g>
		</g>
	</g>
	<circle class="st11" cx="437.7" cy="179.3" r="18.9"/>
	<circle class="st11" cx="437.7" cy="179.3" r="18.9"/>
	<circle class="st11" cx="437.7" cy="179.3" r="18.9"/>
	<circle class="st11" cx="437.7" cy="179.3" r="18.9"/>
	<circle class="st11" cx="437.7" cy="179.3" r="18.9"/>
	<g>
		<path class="st6" d="M552.1,295.6c-0.1,0-0.1,0-0.2-0.1l-7.6-7.2c-0.1-0.1-0.1-0.3,0-0.4s0.3-0.1,0.4,0l7.6,7.2
			c0.1,0.1,0.1,0.3,0,0.4C552.3,295.6,552.2,295.6,552.1,295.6z"/>
		<path class="st6" d="M549.6,298.3c-0.1,0-0.1,0-0.2-0.1l-7.6-7.2c-0.1-0.1-0.1-0.3,0-0.4s0.3-0.1,0.4,0l7.6,7.2
			c0.1,0.1,0.1,0.3,0,0.4C549.8,298.2,549.7,298.3,549.6,298.3z"/>
		<path class="st6" d="M565.2,317.3c-0.7,0-1.6-0.3-2.1-0.8l-24.6-23.7c-0.6-0.6-0.6-1.5,0-2.1l5.6-5.8c0.6-0.6,1.5-0.6,2.1,0
			l24.6,23.8c0.6,0.6,0.8,1.3,0.9,2.1c0,0.7-0.3,1.6-0.8,2.1l-3.4,3.5C566.8,317,565.9,317.3,565.2,317.3z M545,284.9
			c-0.3,0-0.5,0.1-0.7,0.3l-5.6,5.8c-0.4,0.4-0.4,0.9,0,1.3l24.6,23.8c0.9,0.9,2.5,0.9,3.5-0.1l3.4-3.5c0.5-0.5,0.7-1,0.7-1.8
			c0-0.7-0.3-1.2-0.7-1.8l-24.6-23.8C545.5,285,545.2,284.9,545,284.9z M570.5,312.6L570.5,312.6L570.5,312.6z"/>
		<path class="st6" d="M539.3,290.4l-25.6-24.7l4.5-4.7l25.6,24.7L539.3,290.4z M514.5,265.7l24.8,23.9l3.7-3.8l-24.8-23.9
			L514.5,265.7z"/>
	</g>
	<ellipse class="st7" cx="505" cy="252.9" rx="33.5" ry="33.5"/>
	<path class="st6" d="M504.9,286.8c-6.4,0-12.9-2-18.4-5.6c-15.5-10.3-19.9-31.2-9.6-46.7s31.2-19.9,46.7-9.6
		c15.5,10.3,19.9,31.2,9.6,46.7c-4.8,7.3-11.9,12.3-20.4,14.3l-0.1-0.3l0.1,0.3C510.1,286.5,507.5,286.8,504.9,286.8z M505,219.7
		c-10.8,0-21.5,5.3-27.8,14.9c-10.1,15.3-5.8,35.9,9.5,46c7.7,5.1,16.9,6.6,25.9,4.6c8.3-2,15.4-6.9,20.1-14.1
		c10.1-15.3,5.8-35.9-9.5-46C517.6,221.6,511.2,219.7,505,219.7z"/>
	<path class="st10" d="M513.7,280c-0.1,0-0.2-0.1-0.3-0.2c0-0.1,0-0.3,0.2-0.4c6.1-2,11.1-5.8,14.6-11.2c2.4-3.5,3.8-7.7,4.4-11.9
		c0-0.2,0.2-0.3,0.3-0.2c0.2,0,0.3,0.2,0.2,0.3c-0.6,4.4-2.1,8.4-4.5,12C525.1,274,519.9,278,513.7,280L513.7,280z"/>
	<path class="st10" d="M513.6,226.5L513.6,226.5c-5-1.7-10.3-1.9-15.2-0.6c-0.1,0-0.3-0.1-0.3-0.2s0.1-0.3,0.2-0.3
		c5.1-1.2,10.5-1,15.4,0.6c0.1,0,0.2,0.2,0.2,0.4C513.8,226.4,513.7,226.5,513.6,226.5z"/>
	<path class="st10" d="M477.1,249.2C477.1,249.2,477,249.2,477.1,249.2c-0.2,0-0.3-0.2-0.3-0.3c0.6-4.1,2.1-8,4.4-11.5
		c3-4.6,7.2-8.1,12-10.4c0.1-0.1,0.3,0,0.4,0.1s0,0.3-0.1,0.4c-4.9,2.1-8.9,5.7-11.8,10.2c-2.2,3.5-3.6,7.3-4.2,11.3
		C477.3,249.1,477.2,249.2,477.1,249.2z"/>
	<path class="st10" d="M505,281.3c-2.3,0-4.6-0.3-6.7-0.7c-0.1,0-0.2-0.2-0.2-0.3s0.2-0.2,0.3-0.2c3.8,0.9,8,1,11.9,0.3
		c0.2,0,0.3,0.1,0.3,0.2c0,0.2-0.1,0.3-0.2,0.3C508.5,281.2,506.7,281.3,505,281.3z"/>
	
		<ellipse transform="matrix(0.4641 -0.8858 0.8858 0.4641 47.1659 583.7347)" class="st10" cx="506" cy="252.9" rx="16.6" ry="16.6"/>
	<g>
		<path class="st13" d="M281.8,199.5c0,0,5.6,74.3,23.3,82.8c17.7,8.5,54.4,0,54.4,0l-28.2-52.8l-14.1-51.2L281.8,199.5z"/>
	</g>
	<g>
		<path class="st14" d="M285.5,211.1c0,0,28.1-4.6,31.4-12.2c3.3-7.7-34.9,0.6-34.9,0.6L285.5,211.1z"/>
	</g>
	<g>
		<path class="st7" d="M295.8,352.9c-1.5-14.9-3-31.4-4-40.1l-130.7-14.2c0,0-3.1,31.9-5.2,56C202.6,354.3,249.3,353.1,295.8,352.9z
			"/>
	</g>
	<g>
		<path class="st14" d="M169.1,358.7l4.5-40c0-0.3-0.2-0.6-0.5-0.7c-0.4,0-0.6,0.2-0.7,0.5l-4.5,40.2
			C168.2,358.7,168.6,358.7,169.1,358.7z"/>
	</g>
	<g>
		<path class="st14" d="M170.1,347.3C170,347.3,170,347.3,170.1,347.3c-0.3,0-0.6-0.3-0.6-0.6c0-0.3,0.3-0.6,0.6-0.6l0,0
			c0.7,0,27.5,0.5,40-33.4c0.1-0.3,0.5-0.5,0.7-0.3c0.3,0.1,0.5,0.5,0.4,0.7C198.4,347.7,170.8,347.3,170.1,347.3z"/>
	</g>
	<g>
		<path class="st6" d="M294.4,342.6L294.4,342.6c-0.3,0-21.7-4.9-20.4-30.5c0-0.3,0.3-0.6,0.6-0.6l0,0c0.3,0,0.6,0.3,0.6,0.6
			c-1.1,24.6,18.6,29,19.4,29.2c0.3,0.1,0.5,0.4,0.5,0.7C295,342.5,294.7,342.6,294.4,342.6z"/>
	</g>
	<g>
		<path class="st6" d="M158,333.5l2.1-19.8l93.7-2.1C253.8,311.7,201.1,326.8,158,333.5z"/>
	</g>
	<g>
		<path class="st15" d="M215.4,116.5c0,0-40.7,3.5-52.2,10.7c-8.5,5.4-6.9,40.6-1.6,64.5c2.1,9.4,2.7,35.4,1.5,45.1l-8,88.3l64-8.8
			c9.6-1.3,19.5-1.2,29.1,0.2l46.6,6.9c0,0-6.5-109.9-5.9-117c0,0,22.3,2.9,36.9-11.4c0,0-3.5-19.5-10.1-33.9
			c-6.4-14.3-17.2-29.3-36-36.4c-18.9-7.2-41-5-41-5L215.4,116.5z"/>
	</g>
	<g>
		<g>
			<path class="st16" d="M247.8,83.3c0,0,5.5-6.5,10.6-5.1c5.1,1.5,6.6,12.1,1.5,14.7c-5.2,2.5-11.9-1.1-11.9-1.1L247.8,83.3z"/>
		</g>
		<g>
			<path class="st14" d="M258.1,90.5c-0.1,0-0.2,0-0.2-0.1c-0.1-0.1,0-0.2,0.1-0.3c0.1-0.1,3.1-1.7,1.9-5.2
				c-0.5-1.5-1.1-2.4-2.1-2.8c-1.1-0.5-2.7-0.3-5.3,0.7c-0.1,0-0.2,0-0.3-0.1c0-0.1,0-0.2,0.1-0.3c2.7-1.1,4.4-1.3,5.6-0.7
				c0.9,0.5,1.8,1.5,2.3,3C261.6,88.7,258.3,90.4,258.1,90.5C258.2,90.5,258.2,90.5,258.1,90.5z"/>
		</g>
		<g>
			<path class="st14" d="M253.6,53.2c2.9,3.8,2.4,12.4,0.8,20.2s-2.9-14.6-2.9-14.6l-5.5-6.2L253.6,53.2z"/>
		</g>
		<g>
			<path class="st13" d="M245.6,104.4l1.5,13.9c0,0-11.3,7-32.4,0.7L213,91.2l17.9,11.9L245.6,104.4z"/>
		</g>
		<g>
			<path class="st14" d="M246.2,109.4l-0.5-4.9l-14.8-1.3l-6-3.9h-3.6C228.5,109.8,242.6,109.6,246.2,109.4z"/>
		</g>
		<g>
			<path class="st13" d="M253.7,57c1.6,4,0,10.3,1.5,18.8c1.5,8.5,5.5,26.2-10.8,30.3c-16.3,4-30.8-9.3-30.8-9.3L206,70.2
				c-3.5-12.3,4.1-22.6,16.7-25.7c0.3-0.1,0.6-0.1,0.8-0.2C248,39,253.7,57,253.7,57z"/>
		</g>
		<g>
			<path class="st14" d="M205.8,81.2l-5-20.1l13.7-4.5c0,0-0.4,7.2-0.1,15.8c0.3,8.6,1.9,12,1.9,12L205.8,81.2z"/>
		</g>
		<g>
			<path class="st13" d="M214,84.4c0,0-5.9-6.2-10.9-4.5c-5,1.8-5.9,12.5-0.5,14.7c5.3,2.2,11.9-2,11.9-2L214,84.4z"/>
		</g>
		<g>
			<path class="st14" d="M241.4,86.3c-0.1,0-0.2,0-0.3-0.1s-0.1-0.3,0.1-0.4c1.1-0.7,2.3-2.8,2.2-4.9c0-1.2-0.7-2-1.6-3
				c-0.7-0.7-1.5-1.7-2.2-3c-0.1-0.1,0-0.3,0.1-0.4s0.3,0,0.4,0.1c0.7,1.3,1.6,2.2,2.2,3c0.9,1.1,1.7,2,1.8,3.4
				c0.1,2.5-1.2,4.6-2.4,5.5C241.5,86.3,241.5,86.3,241.4,86.3z"/>
		</g>
		<g>
			<path class="st14" d="M230.2,78.1c0-1.3-0.6-2.5-1-2.5c-0.6,0-0.9,1.1-0.9,2.6c0,1.3,0.6,2.5,1,2.5
				C229.8,80.7,230.3,79.6,230.2,78.1z"/>
		</g>
		<g>
			<path class="st14" d="M249.5,76.9c0-1.3-0.6-2.5-1-2.5c-0.6,0-0.9,1.1-0.9,2.6c0,1.3,0.6,2.5,1,2.5
				C249.2,79.4,249.5,78.2,249.5,76.9z"/>
		</g>
		<g>
			<path class="st14" d="M204.2,92.2L204.2,92.2c-0.1,0-3.5-1.7-2.5-5.6c0.5-1.7,1.1-2.6,2.1-3.2c1.2-0.7,2.9-0.5,5.7,0.4
				c0.1,0,0.2,0.2,0.1,0.3c0,0.1-0.2,0.2-0.3,0.1c-2.6-0.8-4.2-1-5.3-0.5c-0.8,0.5-1.5,1.3-1.9,2.9c-0.9,3.5,2.1,5,2.1,5.1
				c0.1,0.1,0.2,0.2,0.1,0.3C204.3,92.2,204.3,92.2,204.2,92.2z"/>
		</g>
		<g>
			<path class="st14" d="M232.8,70.7c0,0.5-0.6,0.7-0.9,1c-2.3,1-4.9,1.8-7.4,2c-0.5,0-0.8,0-1.3-0.1c-0.7-0.3-1.1-1-1-1.9
				c0.1-0.6,0.6-1.1,1.1-1.5c0.6-0.4,1.1-0.5,1.8-0.7c2.3-0.6,4.9-1,6.9,0C232.5,69.9,232.9,70.3,232.8,70.7z"/>
		</g>
		<g>
			<path class="st14" d="M251.7,70.9c-1.5,0.2-3.4-0.3-4.5-0.2c-0.9,0.1-2.8,0.7-3.1-0.7c0-0.9,0.7-1.8,1.6-2.1
				c0.7-0.3,1.3-0.4,2.1-0.5c1.6-0.2,4-0.6,5.3,0.7c0.3,0.3,0.5,0.7,0.4,1.2C253.1,70.4,252.4,70.7,251.7,70.9z"/>
		</g>
		<g>
			<path class="st14" d="M228.3,82.7c-0.1,0-0.3,0-0.4,0c-0.1,0-0.2-0.1-0.2-0.2s0.1-0.2,0.2-0.2c2.1,0.1,3-0.8,3-0.8
				c0.1-0.1,0.2-0.1,0.3,0s0.1,0.2,0,0.3C231.1,81.6,230.2,82.6,228.3,82.7z"/>
		</g>
		<g>
			<path class="st14" d="M249.5,80.4c-1.9,0.1-2.7-0.6-2.7-0.6c-0.1-0.1-0.1-0.2,0-0.3c0.1-0.1,0.2-0.1,0.3,0c0,0,0.7,0.6,2.4,0.6
				c0.1,0,0.2,0.1,0.2,0.2C249.7,80.3,249.6,80.4,249.5,80.4z"/>
		</g>
		<g>
			<path class="st14" d="M223,102.9L223,102.9c-0.3-0.1-5.3-2.9-7.6-5.2c-0.1-0.1-0.1-0.2,0-0.3c0.1-0.1,0.2-0.1,0.3,0
				c2.2,2.2,7.4,5.1,7.4,5.1c0.1,0.1,0.1,0.2,0.1,0.3C223.1,102.8,223,102.9,223,102.9z"/>
		</g>
		<g>
			<path class="st14" d="M241.9,104c-0.1,0-0.1,0-0.2-0.1c-0.1-0.1-0.1-0.2,0-0.3s2.2-2.3,0.7-4.1c-0.1-0.1-0.1-0.2,0-0.3
				c0.1-0.1,0.2-0.1,0.3,0C244.5,101.4,242,104,241.9,104C242,104,241.9,104,241.9,104z"/>
		</g>
		<g>
			<path class="st10" d="M239,90.5c-3-2-4.9-4.9-8.6-2.5c-3.7,2.4,2.7,8.7,7.7,8.2c4.9-0.5,7-2.6,6.4-4.6
				C244,90,240.2,91.4,239,90.5z"/>
		</g>
		<g>
			<path class="st17" d="M209.9,61.6"/>
		</g>
		<g>
			<path class="st14" d="M202.2,65.9c-5.8-6-8.3-8.9-4.4-13.4c3.9-4.6,3.1-6.5,10.5-9c7.4-2.4,6.2-13.5,15.4-13.9
				c9.2-0.5,10.8,11.9,17.5,9.8c6.6-2,11.3-7.4,16.2-2.2s6.3,14.8,1.2,17.9c-5,3.2-3.5,5.1-3.5,5.1s-6.5-8.1-12-5.8s-4.6,5.2-15,4.5
				c-10.5-0.7-11.9-9.2-14.2,8.2L202.2,65.9z"/>
		</g>
		<g>
			<path class="st14" d="M231.7,62c-3.4-0.1-6.6-2-10.1-3.8c-1.1-0.7-2.4-1.3-3.6-2.1l0.3-0.6c1.2,0.7,2.5,1.3,3.6,2.1
				c4.8,2.7,8.9,5,13.5,3.1c2.3-0.9,3.8-2.1,5.1-3.1c1.9-1.3,3.2-2.3,5.8-1.7c1.6,0.4,2.7,1.2,3.7,2.1c1.9,1.2,3.4,2.4,6.5,1
				c2.1-0.8,3.5-2.7,4.6-5.2c1.2-3.4,0.9-7.5-0.7-10.5L261,43c1.8,3.3,2.1,7.5,0.7,11c-0.9,2.7-2.7,4.7-4.9,5.6
				c-3.5,1.5-5.3,0.2-7.3-1.1c-1-0.7-2.1-1.6-3.5-2c-2.3-0.6-3.4,0.2-5.2,1.6c-1.2,0.9-2.8,2.1-5.2,3.2C234.4,61.9,233,62,231.7,62z
				"/>
		</g>
		<g>
			<path class="st10" d="M213.9,56.3l-0.7-0.3c2.7-6,4.7-8.5,9.4-8c1.8,0.2,3.1,1.2,4.4,2.2c2.2,1.8,4,3.2,8,0.7
				c2.1-1.3,3.6-2.8,5.1-4c2.8-2.5,5-4.6,9.8-3.8c2.3,0.3,3.9,0,4.9-0.9c1.2-1.2,0.9-3.1,0.9-3.1l0.7-0.1c0,0.1,0.3,2.2-1.1,3.6
				c-1.1,1.1-3,1.6-5.5,1.1c-4.6-0.7-6.5,1.1-9.2,3.6c-1.3,1.2-3,2.7-5.2,4.1c-4.4,2.8-6.6,0.9-8.8-0.7c-1.1-0.9-2.4-2-4-2.1
				c-0.3,0-0.7-0.1-0.9-0.1C218.1,48.6,216.4,50.8,213.9,56.3z"/>
		</g>
	</g>
	<g>
		<path class="st13" d="M214.6,119c0,0,17.1,15.2,27.8,10.4c10.7-4.9,9.8-9.9,9.8-9.9l-5.2-1.2L214.6,119z"/>
	</g>
	<g>
		<path class="st14" d="M288.9,206.7c-0.1,0-0.2-0.1-0.2-0.2c-0.5-11.9,2.1-23.9,2.1-24s0.2-0.2,0.3-0.2c0.1,0,0.2,0.2,0.2,0.3
			s-2.5,12.1-2.1,23.9C289.2,206.5,289.1,206.6,288.9,206.7L288.9,206.7z"/>
	</g>
	<g>
		<path class="st14" d="M289.4,192.6L289.4,192.6c-0.2-0.1-0.2-0.2-0.2-0.3l4.8-6.5c0.1-0.1,0.2-0.1,0.3-0.1
			c0.1,0.1,0.1,0.2,0.1,0.3l-4.8,6.5C289.5,192.5,289.5,192.6,289.4,192.6z"/>
	</g>
	<g>
		<path class="st14" d="M240.6,135.1c-8.8-0.3-17.5-5.1-17.6-5.2c-0.1-0.1-0.2-0.2-0.1-0.3c0.1-0.1,0.2-0.2,0.3-0.1
			c0.1,0.1,13.5,7.6,23.5,4.5c0.1,0,0.3,0,0.3,0.2c0,0.1,0,0.3-0.2,0.3C244.8,135,242.7,135.1,240.6,135.1z"/>
	</g>
	<g>
		<path class="st14" d="M292.2,149.2C292.1,149.2,292.1,149.2,292.2,149.2c-0.2,0-0.3-0.1-0.2-0.3c0.4-3.3,3.5-8.5,3.5-8.8
			c0.1-0.1,0.2-0.2,0.3-0.1c0.1,0.1,0.2,0.2,0.1,0.3c0,0.1-3.1,5.4-3.5,8.6C292.4,149.1,292.3,149.2,292.2,149.2z"/>
	</g>
	<g>
		<path class="st13" d="M112.4,360.9c-0.5-2.1-13.7-56.6-10.3-92.4c3.5-34.8,29.1-101.9,30.2-104.8l40.6,14
			c-6.5,19-23.9,73.5-26.3,98.3c-2.3,23.9,4.6,67.5,7.5,80.3L112.4,360.9z"/>
	</g>
	<g>
		<path class="st14" d="M118.6,202.9l2.7-8.3l28.3,10.7C149.6,205.4,143.2,208,118.6,202.9z"/>
	</g>
	<g>
		<path class="st15" d="M163.3,127.1c-31.9,15.1-52.7,67.9-52.7,67.9s12.4,5.8,30.4,9.6c17.9,3.8,26.7,3.4,26.7,3.4
			s12.4-13.3,12.4-14.8c0.1-1.7-5.5-49.9-5.5-49.9L163.3,127.1z"/>
	</g>
	<g>
		<path class="st14" d="M169.6,205.9C169.5,205.9,169.5,205.8,169.6,205.9c-0.2-0.1-0.3-0.2-0.2-0.3c7.9-17.8,11-21.1,11.1-21.4
			c0.1-0.1,0.3-0.1,0.3,0c0.1,0.1,0.1,0.3,0,0.4c0,0-3.2,3.4-11,21.1C169.8,205.8,169.7,205.9,169.6,205.9z"/>
	</g>
	<g>
		<path class="st14" d="M173.4,198.1c-0.1,0-0.2-0.1-0.2-0.2s0-0.3,0.2-0.3c3.5-0.9,9.1-7.3,9.1-7.4c0.1-0.1,0.2-0.1,0.3,0
			s0.1,0.2,0,0.3C182.5,190.9,177,197,173.4,198.1L173.4,198.1z"/>
	</g>
	<rect x="298.8" y="206.8" class="st9" width="171.9" height="10.8"/>
	<g>
		<path class="st6" d="M340,304.8h-41.7v-98.4h172.9v28.9c0,0.3-0.2,0.5-0.5,0.5s-0.5-0.2-0.5-0.5v-28.1h-171v96.5H340
			c0.3,0,0.5,0.2,0.5,0.5C340.5,304.5,340.3,304.8,340,304.8z"/>
		<path class="st10" d="M307.8,210.5c2.1,2.6-0.9,5.6-3.6,3.6C302.2,211.5,305.2,208.5,307.8,210.5z"/>
		<path class="st10" d="M315.7,210.5c2.1,2.6-0.9,5.6-3.6,3.6C310.1,211.5,313.1,208.5,315.7,210.5z"/>
		<path class="st10" d="M323.8,210.5c2.1,2.6-0.9,5.6-3.6,3.6C318.2,211.5,321,208.5,323.8,210.5z"/>
		<rect x="308.9" y="225.9" class="st6" width="151.7" height="68.7"/>
		<g>
			<path class="st18" d="M365.6,264.1c-0.2,3.2-1.4,5.7-3.5,7.6s-4.9,2.7-8.4,2.7c-3.8,0-6.8-1.3-9-3.8c-2.1-2.5-3.3-6.1-3.3-10.5
				v-1.8c0-2.9,0.5-5.3,1.5-7.6c1-2.1,2.4-3.8,4.3-5c1.9-1.1,4-1.8,6.5-1.8c3.5,0,6.2,0.9,8.3,2.7c2.1,1.9,3.3,4.4,3.6,7.7h-6.1
				c-0.2-2-0.7-3.3-1.6-4.2c-0.9-0.8-2.3-1.3-4.2-1.3c-2.1,0-3.5,0.7-4.6,2.1c-1,1.5-1.5,3.7-1.6,6.8v2.2c0,3.2,0.5,5.5,1.5,7
				c0.9,1.5,2.5,2.2,4.6,2.2c1.9,0,3.3-0.5,4.2-1.3c0.9-0.8,1.5-2.2,1.6-4h6.1v0.3L365.6,264.1L365.6,264.1z"/>
			<path class="st18" d="M377.6,244.3l7.7,21.6l7.6-21.6h8V274h-6.2v-8.1l0.7-14l-8,22.1h-4.2l-8-22.1l0.7,14v8.1h-6.1v-29.7H377.6
				L377.6,244.3z"/>
			<path class="st18" d="M421.5,266.2c0-1.1-0.4-2.1-1.2-2.6c-0.8-0.7-2.2-1.3-4.4-2s-3.8-1.4-5-2.1c-3.4-1.9-5-4.3-5-7.4
				c0-1.6,0.5-3,1.4-4.3c0.9-1.2,2.2-2.2,3.9-3c1.7-0.7,3.5-1,5.7-1s4,0.4,5.7,1.1s3,1.9,3.8,3.3c0.9,1.4,1.4,3,1.4,4.8h-6.1
				c0-1.4-0.5-2.4-1.3-3.2c-0.8-0.7-2.1-1.1-3.6-1.1s-2.6,0.3-3.5,0.9c-0.8,0.7-1.2,1.5-1.2,2.5c0,0.9,0.5,1.8,1.5,2.4
				c0.9,0.7,2.4,1.3,4.3,1.9c3.5,1,6,2.3,7.6,3.9s2.4,3.5,2.4,5.8c0,2.6-0.9,4.6-2.9,6.1s-4.6,2.1-7.8,2.1c-2.2,0-4.4-0.4-6.3-1.2
				c-1.9-0.8-3.3-2-4.3-3.5s-1.5-3.2-1.5-5h6.2c0,3.3,2,4.9,5.9,4.9c1.5,0,2.6-0.3,3.4-0.8C421.1,268.1,421.5,267.2,421.5,266.2z"/>
		</g>
	</g>
	<g>
		<g>
			<path class="st13" d="M345.8,299.5l2-17.9c0.4-3.2,3.5-5.5,7.2-5.2c3,0.3,5.3,2.2,5.9,4.8c0.9-2.5,3.7-4.1,6.8-3.9
				c2.4,0.2,4.4,1.5,5.3,3.3c1.2-1.8,3.5-2.8,6.1-2.6c3.1,0.3,5.4,2.3,5.9,4.9c1.1-1.7,3.3-2.6,5.5-2.4c3.3,0.3,5.6,2.8,5.3,5.7
				l-1.8,16.2c-0.1,0.7-0.3,1.5-0.7,2.1c-1,1.8-3.3,2.9-5.7,2.6c-2.3-0.2-4-1.6-4.9-3.3c-0.1,0.3-0.3,0.6-0.4,0.8
				c-1.2,2-3.6,3.2-6.3,3c-2.4-0.2-4.4-1.6-5.3-3.3c-1.2,1.8-3.5,2.9-6.1,2.6c-3-0.3-5.3-2.2-5.9-4.8c-0.1,0.3-0.3,0.7-0.5,0.9
				c-1.2,2-3.6,3.2-6.3,3C348.1,305.5,345.4,302.7,345.8,299.5z"/>
		</g>
		<g>
			<path class="st14" d="M360.9,281.1c0-0.1-0.1-0.2-0.2-0.2s-0.3,0.1-0.3,0.2l-2.1,20.8c0,0.1,0.1,0.2,0.2,0.3
				c0.1,0,0.3-0.1,0.3-0.2L360.9,281.1L360.9,281.1z"/>
		</g>
		<g>
			<path class="st14" d="M373,280.4c0-0.1-0.1-0.2-0.2-0.2s-0.3,0.1-0.3,0.2l-2,12.7c0,0.1,0.1,0.2,0.2,0.3c0.1,0,0.3-0.1,0.3-0.2
				L373,280.4L373,280.4z"/>
		</g>
		<g>
			<path class="st14" d="M384.7,287.8c0-0.1-0.1-0.2-0.2-0.2s-0.3,0.1-0.3,0.2l-2.3,14.4c0,0.1,0.1,0.2,0.2,0.3
				c0.1,0,0.3-0.1,0.3-0.2L384.7,287.8C384.7,287.9,384.7,287.8,384.7,287.8z"/>
		</g>
		<g>
			<path class="st14" d="M385.1,282.6c0-0.1-0.1-0.2-0.2-0.2s-0.3,0.1-0.3,0.2l-0.5,2.1c0,0.1,0.1,0.2,0.2,0.3
				c0.1,0,0.3-0.1,0.3-0.2L385.1,282.6C385.1,282.7,385.1,282.6,385.1,282.6z"/>
		</g>
		<g>
			<path class="st14" d="M357.4,285.9L357.4,285.9l1.1-4.7c0-0.1,0-0.1-0.1-0.2s-2-2.1-5.2-2.2c-0.2,0-0.3,0.1-0.3,0.2
				s0.1,0.2,0.3,0.2c2.6,0.1,4.4,1.6,4.8,2l-1,4.5c-3.3,1.7-6.6-0.2-7.4-0.7l0.8-3.8c0-0.1-0.1-0.3-0.2-0.3s-0.3,0.1-0.3,0.2
				L349,285c0,0.1,0,0.2,0.1,0.2C349.1,285.2,353.2,288,357.4,285.9C357.3,286,357.3,286,357.4,285.9z"/>
		</g>
		<g>
			<path class="st14" d="M370.1,285.5L370.1,285.5l0.7-4.8c0-0.1,0-0.1-0.1-0.2s-2.1-2-5.3-1.9c-0.2,0-0.3,0.1-0.3,0.3
				c0,0.1,0.1,0.2,0.3,0.2c2.6-0.1,4.5,1.2,4.9,1.7l-0.7,4.5c-3.2,1.9-6.6,0.2-7.5-0.2l0.6-3.8c0-0.1-0.1-0.3-0.2-0.3
				s-0.3,0.1-0.3,0.2l-0.6,4c0,0.1,0,0.2,0.1,0.2C361.8,285.5,366.1,287.9,370.1,285.5C370,285.5,370,285.5,370.1,285.5z"/>
		</g>
		<g>
			<path class="st14" d="M382.1,286.9C382.1,286.9,382.2,286.9,382.1,286.9l0.7-4.8c0-0.1,0-0.1-0.1-0.2s-2.1-2-5.3-1.9
				c-0.2,0-0.3,0.1-0.3,0.3c0,0.1,0.1,0.2,0.3,0.2c2.6-0.1,4.5,1.2,4.9,1.7l-0.7,4.5c-3.2,1.9-6.6,0.2-7.5-0.2l0.6-3.8
				c0-0.1-0.1-0.3-0.2-0.3s-0.3,0.1-0.3,0.2l-0.6,4c0,0.1,0,0.2,0.1,0.2C373.9,286.9,378.1,289.3,382.1,286.9
				C382.1,287,382.1,287,382.1,286.9z"/>
		</g>
		<g>
			<path class="st14" d="M393.8,289.3C393.9,289.2,393.9,289.2,393.8,289.3l0.7-4.6c0-0.1,0-0.1-0.1-0.2s-2.1-1.9-5.1-1.8
				c-0.1,0-0.3,0.1-0.2,0.2c0,0.1,0.1,0.2,0.3,0.2c2.5-0.1,4.2,1.1,4.7,1.6l-0.7,4.2c-3,1.8-6.3,0.2-7-0.1l0.5-3.6
				c0-0.1-0.1-0.2-0.2-0.3c-0.1,0-0.3,0.1-0.3,0.2l-0.6,3.8c0,0.1,0,0.2,0.1,0.2C385.9,289.2,390,291.5,393.8,289.3L393.8,289.3z"/>
		</g>
	</g>
	<path class="st6" d="M225.8,374.5H73.4v-97.9h152.4L225.8,374.5L225.8,374.5z M74.1,373.9h151.1v-96.5H74.1V373.9z"/>
	<path class="st6" d="M220.7,388.3H78.5c-5.2,0-9.4-4.2-9.4-9.4v-0.4H230v0.4C230.1,384.1,225.9,388.3,220.7,388.3z M69.7,379.3
		c0.2,4.7,4,8.3,8.7,8.3h142.1c4.7,0,8.5-3.7,8.7-8.3H69.7z"/>
	<path class="st6" d="M160.5,382.5h-21.8c-0.2,0-0.4-0.2-0.4-0.4c0-0.2,0.2-0.4,0.4-0.4h21.8c0.2,0,0.4,0.2,0.4,0.4
		C160.8,382.4,160.7,382.5,160.5,382.5z"/>
	<rect x="77.3" y="280.5" class="st8" width="144.5" height="81.1"/>
	<path class="st19" d="M146.3,324.7c-0.1,0-0.1,0-0.2,0c-0.1-0.1-0.2-0.2-0.2-0.3v-7.2c0-0.1,0.1-0.3,0.2-0.3c0.1-0.1,0.3-0.1,0.4,0
		l6.1,3.5c0.1,0.1,0.2,0.2,0.2,0.3s-0.1,0.3-0.2,0.3l-6.1,3.5C146.4,324.7,146.3,324.7,146.3,324.7z M146.6,317.7v6l5-2.9
		L146.6,317.7z"/>
	<path class="st6" d="M491.1,148.4H439c-2.4,0-4.3-2-4.3-4.3V50.7c0-2.4,2-4.3,4.3-4.3h52.2c2.4,0,4.3,2,4.3,4.3v93.4
		C495.4,146.4,493.5,148.4,491.1,148.4z M438.9,46.9c-2.1,0-3.6,1.7-3.6,3.6V144c0,2.1,1.7,3.6,3.6,3.6H491c2.1,0,3.6-1.7,3.6-3.6
		V50.7c0-2.1-1.7-3.6-3.6-3.6L438.9,46.9L438.9,46.9z"/>
	<path class="st15" d="M476,50.1v1.5c0,0.8-0.7,1.4-1.4,1.4h-19.1c-0.8,0-1.4-0.7-1.4-1.4v-1.5h-16.3v93.4h54.6V50.1H476z"/>
	<g>
		<path class="st20" d="M360.5,191.2c-0.2,0-0.3,0-0.3-0.2l-11.8-11.7l11.7-11.7c0.2-0.2,0.7-0.2,0.8,0c0.2,0.2,0.2,0.7,0,0.8
			l-10.8,10.9l10.9,10.9c0.2,0.2,0.2,0.7,0,0.8C360.8,191.1,360.7,191.2,360.5,191.2z"/>
		<path class="st20" d="M379,191.2c-0.2,0-0.3,0-0.3-0.2c-0.2-0.2-0.2-0.7,0-0.8l10.9-10.9l-10.9-10.9c-0.2-0.2-0.2-0.7,0-0.8
			c0.2-0.2,0.7-0.2,0.8,0l11.7,11.7L379.5,191C379.3,191.1,379.2,191.2,379,191.2z"/>
		<path class="st20" d="M364.9,190.5h-0.2c-0.3-0.2-0.5-0.5-0.3-0.8l9.7-21.2c0.2-0.3,0.5-0.5,0.8-0.3s0.5,0.5,0.3,0.8l-9.7,21.2
			C365.4,190.4,365.1,190.5,364.9,190.5z"/>
	</g>
	<path class="st8" d="M519.2,249.6h-3.3c-0.2-0.9-0.6-1.8-1-2.6l2.3-2.5c-0.5-0.8-1.1-1.5-1.7-2.2l0,0c-0.6-0.7-1.3-1.3-2.1-1.8
		l-2.3,2.5c-0.8-0.5-1.6-0.8-2.4-1.1v-3.5c-0.9-0.2-1.8-0.3-2.7-0.3c-0.9,0-1.8,0.1-2.7,0.3v3.5c-0.9,0.2-1.7,0.6-2.4,1.1l-2.3-2.5
		c-1.5,1.1-2.8,2.4-3.8,4l2.3,2.5c-0.4,0.8-0.8,1.7-1,2.6h-3.3c-0.2,0.9-0.3,1.9-0.3,2.8c0,1,0.1,1.9,0.3,2.8h3.3
		c0.2,0.9,0.6,1.8,1,2.6l-2.3,2.5c0.5,0.8,1.1,1.5,1.7,2.2l0,0c0.6,0.7,1.3,1.3,2.1,1.8l2.3-2.5c0.8,0.5,1.6,0.8,2.4,1.1v3.5
		c0.9,0.2,1.8,0.3,2.7,0.3l0,0c0.9,0,1.8-0.1,2.7-0.3V263c0.9-0.2,1.7-0.6,2.4-1.1l2.3,2.5c0.7-0.5,1.4-1.1,2.1-1.8l0,0
		c0.6-0.7,1.2-1.4,1.7-2.2l-2.3-2.5c0.4-0.8,0.8-1.7,1-2.6h3.3c0.2-0.9,0.3-1.9,0.3-2.8l0,0C519.5,251.5,519.4,250.5,519.2,249.6z
		 M506,257.3c-2.5,0-4.5-2.2-4.5-4.8c0-2.7,2-4.8,4.5-4.8s4.5,2.2,4.5,4.8C510.6,255.1,508.5,257.3,506,257.3z"/>
	<g>
		<path class="st8" d="M467.6,172.2L467.6,172.2c0,3.2-2.6,5.9-5.8,5.9h-58.4c-3.2,0-5.8-2.6-5.8-5.9l0,0c0-3.2,2.6-5.9,5.8-5.9
			h58.4C465,166.3,467.6,168.9,467.6,172.2z"/>
		<circle class="st21" cx="403.2" cy="171.9" r="5.6"/>
		<path class="st21" d="M467.6,187L467.6,187c0,3-2.6,5.4-5.8,5.4h-58.4c-3.2,0-5.8-2.4-5.8-5.4l0,0c0-3,2.6-5.4,5.8-5.4h58.4
			C465,181.6,467.6,184,467.6,187z"/>
		<circle class="st8" cx="405.4" cy="187.2" r="4"/>
		<line class="st21" x1="409.7" y1="187.2" x2="462.8" y2="187.2"/>
	</g>
	<g>
		<path class="st10" d="M286.3,120.5H283c-0.6,0-1.1-0.1-1.6-0.2c-0.5-0.2-0.9-0.4-1.3-0.8s-0.6-0.8-0.9-1.4
			c-0.2-0.6-0.3-1.3-0.3-2.1v-5.4c0-0.5-0.1-0.9-0.4-1.2s-0.6-0.5-1-0.7c-0.4-0.1-0.7-0.2-1.1-0.3c-0.4,0-0.7-0.1-0.8-0.1v-3.6
			c0.2,0,0.5,0,0.8-0.1c0.4,0,0.7-0.1,1.1-0.3c0.4-0.1,0.7-0.4,1-0.7s0.4-0.7,0.4-1.2v-5c0-0.8,0.1-1.5,0.3-2.1
			c0.2-0.6,0.5-1,0.8-1.4c0.4-0.4,0.8-0.6,1.3-0.8s1-0.2,1.6-0.2h3.3v3.6h-1.5c-0.5,0-0.9,0.1-1.1,0.2c-0.3,0.1-0.5,0.3-0.6,0.5
			s-0.2,0.4-0.2,0.7c0,0.2,0,0.5,0,0.7v5c0,0.7-0.1,1.3-0.3,1.7c-0.2,0.4-0.5,0.7-0.8,0.9s-0.6,0.4-1,0.4c-0.4,0.1-0.7,0.1-1,0.1
			v0.1c0.3,0,0.7,0.1,1,0.1c0.4,0.1,0.7,0.2,1,0.4s0.6,0.5,0.8,1c0.2,0.4,0.3,1,0.3,1.7v5c0,0.2,0,0.4,0,0.7c0,0.2,0.1,0.5,0.2,0.7
			s0.3,0.4,0.6,0.5c0.3,0.1,0.6,0.2,1.1,0.2h1.5v3.4L286.3,120.5L286.3,120.5z"/>
		<path class="st10" d="M296.3,92.9h3.4c0.5,0,1,0.1,1.5,0.2c0.5,0.2,0.9,0.4,1.3,0.8s0.6,0.8,0.9,1.4c0.2,0.6,0.3,1.3,0.3,2.1v5.4
			c0,0.5,0.1,0.9,0.4,1.2s0.6,0.5,0.9,0.7c0.4,0.1,0.7,0.2,1.1,0.3c0.4,0,0.7,0.1,0.9,0.1v3.6c-0.2,0-0.5,0-0.9,0.1
			c-0.4,0-0.7,0.1-1.1,0.3c-0.4,0.1-0.7,0.4-0.9,0.7c-0.3,0.3-0.4,0.7-0.4,1.2v5.4c0,0.8-0.1,1.5-0.3,2.1c-0.2,0.6-0.5,1-0.8,1.4
			c-0.4,0.4-0.8,0.6-1.3,0.8s-1,0.2-1.6,0.2h-3.3v-3.6h1.5c0.5,0,0.9-0.1,1.1-0.2c0.3-0.1,0.5-0.3,0.6-0.5s0.2-0.4,0.2-0.7
			c0-0.2,0-0.5,0-0.7v-5c0-0.7,0.1-1.3,0.3-1.7c0.2-0.4,0.5-0.7,0.8-1c0.3-0.2,0.6-0.4,1-0.4c0.4-0.1,0.7-0.1,1-0.2v-0.1
			c-0.3,0-0.7-0.1-1-0.1c-0.4-0.1-0.7-0.2-1-0.4s-0.6-0.5-0.8-1c-0.2-0.4-0.3-1-0.3-1.7v-5c0-0.2,0-0.4,0-0.7c0-0.2-0.1-0.5-0.2-0.7
			s-0.3-0.4-0.6-0.5c-0.3-0.1-0.6-0.2-1.1-0.2h-1.5v-3.6L296.3,92.9L296.3,92.9z"/>
	</g>
	<circle class="st10" cx="191.5" cy="320.8" r="18.2"/>
	<path class="st22" d="M181,328.2c-0.3,0-0.5-0.2-0.5-0.5v-16.8c0-0.3,0.2-0.5,0.5-0.5h8.8c0.3,0,0.5,0.2,0.5,0.5v2.2h9.7
		c0.3,0,0.5,0.2,0.5,0.5v1.2v0.3h1v-0.2c0-1.5,0-1.2,0-1.2c0-0.8-0.7-1.5-1.5-1.5h-8.8V311c0-0.8-0.7-1.5-1.5-1.5H181
		c-0.8,0-1.5,0.7-1.5,1.5v2.7v0.5v13.6c0,0.8,0.7,1.5,1.5,1.5c0,0,0.5,0,1.4,0v-1H181V328.2z"/>
	<path class="st23" d="M203.6,328.7c0,0.8-0.7,1.5-1.5,1.5h-17.2c-0.8,0-1.5-0.7-1.5-1.5v-11.2c0-0.8,0.7-1.5,1.5-1.5h17.2
		c0.8,0,1.5,0.7,1.5,1.5V328.7z"/>
	<g>
		<path class="st6" d="M190.5,322.9l1.2,1.2c0.1-0.2,0.3-0.4,0.4-0.5l-1.1-1.1C190.8,322.6,190.7,322.8,190.5,322.9z"/>
		<path class="st6" d="M194.7,324c0.1,0.2,0.2,0.4,0.2,0.7l1.6-0.8c-0.1-0.2-0.2-0.4-0.3-0.6L194.7,324z"/>
		<path class="st6" d="M186.8,322.5c-0.2,0.1-0.2,0.3-0.1,0.5c0.1,0.2,0.3,0.2,0.5,0.1l1-0.5c-0.1-0.2-0.3-0.4-0.3-0.6L186.8,322.5z
			"/>
		<path class="st6" d="M200.6,323.6l-1-0.4c0,0.2-0.1,0.4-0.3,0.6l1,0.4c0.2,0.1,0.4,0,0.4-0.2C200.9,323.8,200.8,323.6,200.6,323.6
			z"/>
		<path class="st6" d="M189.5,320.4c-0.6,0-1.1,0.5-1.1,1.1s0.5,1.1,1.1,1.1s1.1-0.5,1.1-1.1C190.6,320.8,190.1,320.4,189.5,320.4z"
			/>
		<circle class="st6" cx="197.9" cy="322.8" r="1.1"/>
		<path class="st6" d="M193.2,323.8c-0.6,0-1.1,0.5-1.1,1.1s0.5,1.1,1.1,1.1s1.1-0.5,1.1-1.1S193.8,323.8,193.2,323.8z"/>
	</g>
	<ellipse class="st10" cx="149" cy="320.6" rx="18.5" ry="18.5"/>
	<path class="st15" d="M159.8,311.7c-2.9-0.5-7.5-0.8-10.9-0.8c-3.3,0-8,0.3-10.9,0.8c-1.3,2.6-2.1,5.8-2.1,9.2s0.8,6.6,2.1,9.2
		c2.9,0.5,7.5,0.8,10.9,0.8c3.3,0,8-0.3,10.9-0.8c1.3-2.6,2.1-5.8,2.1-9.2S161.1,314.3,159.8,311.7z"/>
	<polygon class="st6" points="145.8,315.9 154.5,320.9 145.8,325.9 	"/>
	<g>
		<circle class="st10" cx="105.1" cy="320.6" r="18.8"/>
	</g>
	<g>
		<path class="st6" d="M114.8,329.3H95.5c-0.9,0-1.6-0.7-1.6-1.6v-15.2c0-0.9,0.7-1.6,1.6-1.6h19.3c0.9,0,1.6,0.7,1.6,1.6v15.2
			C116.4,328.6,115.7,329.3,114.8,329.3z"/>
	</g>
	<g>
		<path class="st23" d="M110.3,323.4l-7.2-7.1c-0.3-0.3-0.7-0.3-1,0l-8.2,8.1c-0.1,0.1-0.2,0.3-0.2,0.5v3.9c0,0.4,0.3,0.7,0.7,0.7
			h15.3c0.4,0,0.7-0.3,0.7-0.7v-4.9C110.5,323.7,110.5,323.6,110.3,323.4z"/>
	</g>
	<g>
		<path class="st15" d="M111.5,319.7l-9.8,9.8h14.1c0.3,0,0.6-0.3,0.6-0.6v-4.3L111.5,319.7z"/>
	</g>
	<g>
		<circle class="st10" cx="110" cy="315.3" r="1.5"/>
	</g>
	<rect x="440.6" y="74.9" class="st24" width="49.4" height="3.1"/>
	<rect x="440.1" y="60.1" class="st25" width="49.7" height="12.8"/>
	<g>
		<rect x="445.8" y="112.7" class="st9" width="14" height="14"/>
	</g>
	<g>
		<rect x="447.5" y="114.4" class="st10" width="10.5" height="10.5"/>
	</g>
	<g>
		<g>
			<rect x="459.8" y="114.1" width="0.5" height="0.7"/>
		</g>
		<g>
			<rect x="461.2" y="114.1" width="0.7" height="0.7"/>
		</g>
		<g>
			<polygon points="463.7,115 463,115 463,114.8 462.8,114.8 462.8,114.1 463.7,114.1 			"/>
		</g>
		<g>
			<path d="M463.7,128.2H463v-1.1h0.7V128.2z M463.7,125.6H463v-1.1h0.7V125.6z M463.7,122.9H463v-1.1h0.7V122.9z M463.7,120.3H463
				v-1.1h0.7V120.3z M463.7,117.6H463v-1.1h0.7V117.6z"/>
		</g>
		<g>
			<polygon points="463.7,130.6 462.8,130.6 462.8,129.9 463,129.9 463,129.7 463.7,129.7 			"/>
		</g>
		<g>
			<path d="M461.3,130.6h-1.1v-0.7h1.1V130.6z M458.6,130.6h-1.1v-0.7h1.1V130.6z M456,130.6h-1.1v-0.7h1.1V130.6z M453.3,130.6
				h-1.1v-0.7h1.1V130.6z M450.7,130.6h-1.1v-0.7h1.1V130.6z"/>
		</g>
		<g>
			<polygon points="448,130.6 447.2,130.6 447.2,129.7 447.9,129.7 447.9,129.9 448,129.9 			"/>
		</g>
		<g>
			<rect x="447.2" y="128.2" width="0.7" height="0.7"/>
		</g>
		<g>
			<rect x="447.2" y="126.7" width="0.7" height="0.5"/>
		</g>
	</g>
	<g>
		<g>
			<polygon class="st6" points="456.6,122.2 455.9,122.2 455.9,116.9 451,116.9 451,122.2 450.3,122.2 450.3,116.2 456.6,116.2 			
				"/>
		</g>
		<g>
			<path class="st6" d="M450,123.2c-0.6,0-1.1-0.5-1.1-1.1s0.5-1.1,1.1-1.1s1.1,0.5,1.1,1.1C451,122.7,450.5,123.2,450,123.2z
				 M450,121.8c-0.2,0-0.4,0.2-0.4,0.4c0,0.2,0.2,0.4,0.4,0.4s0.4-0.2,0.4-0.4C450.3,122,450.2,121.8,450,121.8z"/>
		</g>
		<g>
			<path class="st6" d="M455.6,123.2c-0.6,0-1.1-0.5-1.1-1.1s0.5-1.1,1.1-1.1s1.1,0.5,1.1,1.1C456.6,122.7,456.2,123.2,455.6,123.2z
				 M455.6,121.8c-0.2,0-0.4,0.2-0.4,0.4c0,0.2,0.2,0.4,0.4,0.4s0.4-0.2,0.4-0.4C455.9,122,455.8,121.8,455.6,121.8z"/>
		</g>
		<g>
			<rect x="450.7" y="117.6" class="st6" width="5.6" height="0.7"/>
		</g>
	</g>
	<g>
		<rect x="441.1" y="83.9" class="st9" width="29.3" height="22"/>
	</g>
	<g>
		<g>
			<rect x="470.5" y="87.2" width="0.6" height="0.7"/>
		</g>
		<g>
			<rect x="471.9" y="87.2" width="0.7" height="0.7"/>
		</g>
		<g>
			<polygon points="474.5,88.1 473.8,88.1 473.8,87.9 473.6,87.9 473.6,87.2 474.5,87.2 			"/>
		</g>
		<g>
			<path d="M474.5,107.6h-0.7v-1h0.7V107.6z M474.5,105.2h-0.7v-1h0.7V105.2z M474.5,102.8h-0.7v-1h0.7V102.8z M474.5,100.3h-0.7v-1
				h0.7V100.3z M474.5,97.9h-0.7v-1h0.7V97.9z M474.5,95.5h-0.7v-1h0.7V95.5z M474.5,93h-0.7v-1h0.7V93z M474.5,90.6h-0.7v-1h0.7
				V90.6z"/>
		</g>
		<g>
			<polygon points="474.5,110 473.6,110 473.6,109.2 473.8,109.2 473.8,109 474.5,109 			"/>
		</g>
		<g>
			<path d="M472.1,110H471v-0.7h1.1V110z M469.4,110h-1.1v-0.7h1.1V110z M466.7,110h-1.1v-0.7h1.1V110z M464,110h-1.1v-0.7h1.1V110z
				 M461.4,110h-1.1v-0.7h1.1V110z M458.7,110h-1.1v-0.7h1.1V110z M456,110h-1.1v-0.7h1.1V110z M453.3,110h-1.1v-0.7h1.1V110z
				 M450.7,110h-1.1v-0.7h1.1V110z M448,110h-1.1v-0.7h1.1V110z"/>
		</g>
		<g>
			<polygon points="445.3,110 444.4,110 444.4,109 445.2,109 445.2,109.2 445.3,109.2 			"/>
		</g>
		<g>
			<rect x="444.4" y="107.4" width="0.7" height="0.7"/>
		</g>
		<g>
			<rect x="444.4" y="105.9" width="0.7" height="0.6"/>
		</g>
	</g>
	<g>
		<rect x="442.9" y="85.7" class="st10" width="25.7" height="18.3"/>
	</g>
	<g>
		<polygon class="st25" points="442.9,98.6 450.3,89.4 457.6,98.6 457.6,104.1 442.9,104.1 		"/>
	</g>
	<g>
		<polygon class="st24" points="466.8,104.1 459.5,94.9 452.1,104.1 		"/>
	</g>
	<g>
		<circle class="st9" cx="463.1" cy="91.3" r="1.8"/>
	</g>
	<g>
		<g>
			<rect x="476.2" y="97.1" class="st10" width="13.4" height="1.3"/>
		</g>
		<g>
			<g>
				<rect x="476.2" y="100.4" class="st10" width="13.4" height="1.3"/>
			</g>
			<g>
				<rect x="476.2" y="103.8" class="st10" width="13.4" height="1.3"/>
			</g>
			<g>
				<rect x="476.2" y="107.1" class="st10" width="6.7" height="1.3"/>
			</g>
		</g>
	</g>
	<g>
		<rect x="466.8" y="114.5" class="st10" width="23.1" height="1.3"/>
	</g>
	<g>
		<rect x="466.8" y="117.9" class="st10" width="23.1" height="1.3"/>
	</g>
	<g>
		<rect x="466.8" y="121.3" class="st10" width="23.1" height="1.3"/>
	</g>
	<g>
		<rect x="466.8" y="124.6" class="st10" width="11.6" height="1.3"/>
	</g>
</g>
</svg>
